# xmcd CD database file
#
# Track frame offsets:
#	150
#	14572
#	29610
#	42302
#	55935
#	70312
#	83680
#	98177
#	112532
#	125457
#	139842
#	154062
#	166970
#	179495
#	193262
#	206635
#	219690
#	238092
#	247710
#	257435
#	269720
#
# Disc length: 3726 seconds
#
# Revision: 3
# Processed by: cddbd v1.5.2PL0 Copyright (c) Steve Scherf et al.
# Submitted via: CDex 1.51
#
DISCID=300e8c15
DTITLE=Various Artist - Slide Guitar Classics Vol. 1 (1926-1966)
DYEAR=1900
DGENRE=
TTITLE0=Bo Weevil Jackson - You Can't Keep No Brown
TTITLE1=Blind Willie Johnson - Dark Was The Night
TTITLE2=Weaver And Beasley - Bottleneck Blues
TTITLE3=Hambone Willie Newburn - Roll And Tumble Blues
TTITLE4=Charley Patton - A Spoonful Blues
TTITLE5=Son House - Walkin' Blues
TTITLE6=Shreveport Home Wreckers - Fence Breaking Blues
TTITLE7=Tampa Red - Things About Comin' My Way No. 2
TTITLE8=Jim and Bob (The Genial Hawaiians) - St. Louis Blues
TTITLE9=Blind Boy Fuller - Homesick And Lonesome
TTITLE10=Casey Bill Welden - You Just As Well To Let Her Go
TTITLE11=Robert Johnson - Preachin' Blues
TTITLE12=Bukka White - Fixin' To Die
TTITLE13=Muddy Waters - I Be's Troubled
TTITLE14=John Lee - At The Depot
TTITLE15=Elmore James - Dust My Broom
TTITLE16=Furry Lewis - Pearlee Blues
TTITLE17=Chuck Berry - Mad Lad
TTITLE18=Howlin' Wolf - Down In The Bottom
TTITLE19=Earl Hooker - Blue Guitar
TTITLE20=Fred McDowell and The Hunters Chapel Singers - Jesus Is On The Mainline
EXTD=Repertoire Records - Money To Burn Records \r\nREP 4664-WY (Burn 2)
EXTT0=1926
EXTT1=1927
EXTT2=1927
EXTT3=1929
EXTT4=1930
EXTT5=1930
EXTT6=1932
EXTT7=1932
EXTT8=1933
EXTT9=1935
EXTT10=1936
EXTT11=1936
EXTT12=1940
EXTT13=1941
EXTT14=1951
EXTT15=1952
EXTT16=1959
EXTT17=1960
EXTT18=1961
EXTT19=1961
EXTT20=1966
PLAYORDER=
